<svg width="125" height="18" viewBox="0 0 125 18" fill="none" xmlns="http://www.w3.org/2000/svg">
<path d="M0.81543 17V1.35938H5.23047C6.59115 1.35938 7.79427 1.66016 8.83984 2.26172C9.88542 2.86328 10.6911 3.71908 11.2568 4.8291C11.8298 5.93913 12.1198 7.21387 12.127 8.65332V9.65234C12.127 11.1276 11.8405 12.4202 11.2676 13.5303C10.7018 14.6403 9.889 15.4925 8.8291 16.0869C7.77637 16.6813 6.54818 16.9857 5.14453 17H0.81543ZM2.87793 3.05664V15.3135H5.04785C6.6377 15.3135 7.87305 14.8193 8.75391 13.8311C9.64193 12.8428 10.0859 11.4355 10.0859 9.60938V8.69629C10.0859 6.92025 9.66699 5.54167 8.8291 4.56055C7.99837 3.57227 6.81673 3.07096 5.28418 3.05664H2.87793ZM20.5596 7.16016C20.2588 7.11003 19.9329 7.08496 19.582 7.08496C18.2786 7.08496 17.3942 7.63997 16.9287 8.75V17H14.9414V5.37695H16.875L16.9072 6.71973C17.5589 5.68132 18.4827 5.16211 19.6787 5.16211C20.0654 5.16211 20.359 5.21224 20.5596 5.3125V7.16016ZM27.0049 17.2148C25.4294 17.2148 24.1475 16.6992 23.1592 15.668C22.1709 14.6296 21.6768 13.2438 21.6768 11.5107V11.1455C21.6768 9.99251 21.8952 8.96484 22.332 8.0625C22.776 7.15299 23.3919 6.44401 24.1797 5.93555C24.9746 5.41992 25.834 5.16211 26.7578 5.16211C28.2689 5.16211 29.4434 5.65983 30.2812 6.65527C31.1191 7.65072 31.5381 9.07585 31.5381 10.9307V11.7578H23.6641C23.6927 12.9036 24.0257 13.8311 24.6631 14.54C25.3076 15.2419 26.124 15.5928 27.1123 15.5928C27.8141 15.5928 28.4085 15.4495 28.8955 15.1631C29.3825 14.8766 29.8086 14.4971 30.1738 14.0244L31.3877 14.9697C30.4137 16.4665 28.9528 17.2148 27.0049 17.2148ZM26.7578 6.79492C25.9557 6.79492 25.2826 7.08854 24.7383 7.67578C24.194 8.25586 23.8574 9.07227 23.7285 10.125H29.5508V9.97461C29.4935 8.96484 29.2214 8.18424 28.7344 7.63281C28.2474 7.07422 27.5885 6.79492 26.7578 6.79492ZM41.0234 17C40.9089 16.7708 40.8158 16.3626 40.7441 15.7754C39.8203 16.735 38.7174 17.2148 37.4355 17.2148C36.2897 17.2148 35.348 16.8926 34.6104 16.248C33.8799 15.5964 33.5146 14.7728 33.5146 13.7773C33.5146 12.5671 33.973 11.6289 34.8896 10.9629C35.8135 10.2897 37.1097 9.95312 38.7783 9.95312H40.7119V9.04004C40.7119 8.34538 40.5042 7.79395 40.0889 7.38574C39.6735 6.97038 39.0612 6.7627 38.252 6.7627C37.543 6.7627 36.9486 6.94173 36.4688 7.2998C35.9889 7.65788 35.749 8.09115 35.749 8.59961H33.751C33.751 8.01953 33.9551 7.46094 34.3633 6.92383C34.7786 6.37956 35.3372 5.94987 36.0391 5.63477C36.748 5.31966 37.5251 5.16211 38.3701 5.16211C39.7093 5.16211 40.7585 5.4987 41.5176 6.17188C42.2767 6.83789 42.6706 7.75814 42.6992 8.93262V14.2822C42.6992 15.3493 42.8353 16.1979 43.1074 16.8281V17H41.0234ZM37.7256 15.4854C38.3486 15.4854 38.9395 15.3242 39.498 15.002C40.0566 14.6797 40.4613 14.2607 40.7119 13.7451V11.3604H39.1543C36.7194 11.3604 35.502 12.0729 35.502 13.498C35.502 14.1211 35.7096 14.6081 36.125 14.959C36.5404 15.3099 37.0739 15.4854 37.7256 15.4854ZM47.6836 5.37695L47.7373 6.66602C48.5895 5.66341 49.7389 5.16211 51.1855 5.16211C52.8112 5.16211 53.9176 5.78516 54.5049 7.03125C54.8916 6.47266 55.3929 6.02148 56.0088 5.67773C56.6318 5.33398 57.3659 5.16211 58.2109 5.16211C60.7604 5.16211 62.0566 6.51204 62.0996 9.21191V17H60.1123V9.33008C60.1123 8.49935 59.9225 7.87988 59.543 7.47168C59.1634 7.05632 58.526 6.84863 57.6309 6.84863C56.8932 6.84863 56.2809 7.07064 55.7939 7.51465C55.307 7.9515 55.0241 8.54232 54.9453 9.28711V17H52.9473V9.38379C52.9473 7.69368 52.1201 6.84863 50.4658 6.84863C49.1624 6.84863 48.2708 7.40365 47.791 8.51367V17H45.8037V5.37695H47.6836ZM66.9766 5.37695L67.0303 6.66602C67.8825 5.66341 69.0319 5.16211 70.4785 5.16211C72.1042 5.16211 73.2106 5.78516 73.7979 7.03125C74.1846 6.47266 74.6859 6.02148 75.3018 5.67773C75.9248 5.33398 76.6589 5.16211 77.5039 5.16211C80.0534 5.16211 81.3496 6.51204 81.3926 9.21191V17H79.4053V9.33008C79.4053 8.49935 79.2155 7.87988 78.8359 7.47168C78.4564 7.05632 77.819 6.84863 76.9238 6.84863C76.1862 6.84863 75.5739 7.07064 75.0869 7.51465C74.5999 7.9515 74.3171 8.54232 74.2383 9.28711V17H72.2402V9.38379C72.2402 7.69368 71.4131 6.84863 69.7588 6.84863C68.4554 6.84863 67.5638 7.40365 67.084 8.51367V17H65.0967V5.37695H66.9766ZM91.5762 17C91.4616 16.7708 91.3685 16.3626 91.2969 15.7754C90.373 16.735 89.2702 17.2148 87.9883 17.2148C86.8424 17.2148 85.9007 16.8926 85.1631 16.248C84.4326 15.5964 84.0674 14.7728 84.0674 13.7773C84.0674 12.5671 84.5257 11.6289 85.4424 10.9629C86.3662 10.2897 87.6624 9.95312 89.3311 9.95312H91.2646V9.04004C91.2646 8.34538 91.057 7.79395 90.6416 7.38574C90.2262 6.97038 89.6139 6.7627 88.8047 6.7627C88.0957 6.7627 87.5013 6.94173 87.0215 7.2998C86.5417 7.65788 86.3018 8.09115 86.3018 8.59961H84.3037C84.3037 8.01953 84.5078 7.46094 84.916 6.92383C85.3314 6.37956 85.89 5.94987 86.5918 5.63477C87.3008 5.31966 88.0778 5.16211 88.9229 5.16211C90.262 5.16211 91.3112 5.4987 92.0703 6.17188C92.8294 6.83789 93.2233 7.75814 93.252 8.93262V14.2822C93.252 15.3493 93.388 16.1979 93.6602 16.8281V17H91.5762ZM88.2783 15.4854C88.9014 15.4854 89.4922 15.3242 90.0508 15.002C90.6094 14.6797 91.014 14.2607 91.2646 13.7451V11.3604H89.707C87.2721 11.3604 86.0547 12.0729 86.0547 13.498C86.0547 14.1211 86.2624 14.6081 86.6777 14.959C87.0931 15.3099 87.6266 15.4854 88.2783 15.4854ZM99.6113 11.6182L98.3652 12.918V17H96.3779V0.5H98.3652V10.4795L99.4287 9.20117L103.049 5.37695H105.466L100.943 10.2324L105.992 17H103.661L99.6113 11.6182ZM112.126 17.2148C110.55 17.2148 109.269 16.6992 108.28 15.668C107.292 14.6296 106.798 13.2438 106.798 11.5107V11.1455C106.798 9.99251 107.016 8.96484 107.453 8.0625C107.897 7.15299 108.513 6.44401 109.301 5.93555C110.096 5.41992 110.955 5.16211 111.879 5.16211C113.39 5.16211 114.564 5.65983 115.402 6.65527C116.24 7.65072 116.659 9.07585 116.659 10.9307V11.7578H108.785C108.814 12.9036 109.147 13.8311 109.784 14.54C110.429 15.2419 111.245 15.5928 112.233 15.5928C112.935 15.5928 113.53 15.4495 114.017 15.1631C114.504 14.8766 114.93 14.4971 115.295 14.0244L116.509 14.9697C115.535 16.4665 114.074 17.2148 112.126 17.2148ZM111.879 6.79492C111.077 6.79492 110.404 7.08854 109.859 7.67578C109.315 8.25586 108.979 9.07227 108.85 10.125H114.672V9.97461C114.615 8.96484 114.342 8.18424 113.855 7.63281C113.368 7.07422 112.71 6.79492 111.879 6.79492ZM124.587 7.16016C124.286 7.11003 123.96 7.08496 123.609 7.08496C122.306 7.08496 121.422 7.63997 120.956 8.75V17H118.969V5.37695H120.902L120.935 6.71973C121.586 5.68132 122.51 5.16211 123.706 5.16211C124.093 5.16211 124.386 5.21224 124.587 5.3125V7.16016Z" fill="#505050"/>
</svg>
